<mxfile host="app.diagrams.net" agent="Mozilla/5.0 (Windows NT 10.0; Win64; x64) AppleWebKit/537.36 (KHTML, like Gecko) Chrome/132.0.0.0 Safari/537.36" version="26.0.11">
  <diagram name="Page-1" id="T1rJz98SEV_ER_YjWgn7">
    <mxGraphModel dx="574" dy="314" grid="1" gridSize="10" guides="1" tooltips="1" connect="1" arrows="1" fold="1" page="1" pageScale="1" pageWidth="850" pageHeight="1100" math="0" shadow="0">
      <root>
        <mxCell id="0" />
        <mxCell id="1" parent="0" />
        <mxCell id="zFzRF6gRcmaDGI7NoxKq-2" value="Drive Subsystem" style="rounded=0;whiteSpace=wrap;html=1;" vertex="1" parent="1">
          <mxGeometry x="120" y="120" width="120" height="40" as="geometry" />
        </mxCell>
        <mxCell id="zFzRF6gRcmaDGI7NoxKq-3" value="swerveModuleStates" style="rounded=0;whiteSpace=wrap;html=1;fillColor=#dae8fc;strokeColor=#6c8ebf;" vertex="1" parent="1">
          <mxGeometry x="560" y="200" width="160" height="40" as="geometry" />
        </mxCell>
        <mxCell id="zFzRF6gRcmaDGI7NoxKq-4" value="setX" style="shape=step;perimeter=stepPerimeter;whiteSpace=wrap;html=1;fixedSize=1;fillColor=#ffe6cc;strokeColor=#d79b00;" vertex="1" parent="1">
          <mxGeometry x="170" y="380" width="150" height="40" as="geometry" />
        </mxCell>
        <mxCell id="zFzRF6gRcmaDGI7NoxKq-5" value="set module states" style="shape=step;perimeter=stepPerimeter;whiteSpace=wrap;html=1;fixedSize=1;fillColor=#ffe6cc;strokeColor=#d79b00;" vertex="1" parent="1">
          <mxGeometry x="170" y="330" width="150" height="40" as="geometry" />
        </mxCell>
        <mxCell id="zFzRF6gRcmaDGI7NoxKq-6" value="setX" style="shape=step;perimeter=stepPerimeter;whiteSpace=wrap;html=1;fixedSize=1;fillColor=#ffe6cc;strokeColor=#d79b00;" vertex="1" parent="1">
          <mxGeometry x="560" y="280" width="150" height="40" as="geometry" />
        </mxCell>
        <mxCell id="zFzRF6gRcmaDGI7NoxKq-14" style="edgeStyle=orthogonalEdgeStyle;rounded=0;orthogonalLoop=1;jettySize=auto;html=1;exitX=1;exitY=0.5;exitDx=0;exitDy=0;entryX=0;entryY=0.25;entryDx=0;entryDy=0;" edge="1" parent="1" source="zFzRF6gRcmaDGI7NoxKq-7" target="zFzRF6gRcmaDGI7NoxKq-13">
          <mxGeometry relative="1" as="geometry">
            <Array as="points">
              <mxPoint x="540" y="455" />
              <mxPoint x="540" y="572" />
            </Array>
          </mxGeometry>
        </mxCell>
        <mxCell id="zFzRF6gRcmaDGI7NoxKq-7" value="xSpeed" style="rounded=0;whiteSpace=wrap;html=1;fillColor=#d5e8d4;strokeColor=#82b366;" vertex="1" parent="1">
          <mxGeometry x="400" y="440" width="80" height="30" as="geometry" />
        </mxCell>
        <mxCell id="zFzRF6gRcmaDGI7NoxKq-16" style="edgeStyle=orthogonalEdgeStyle;rounded=0;orthogonalLoop=1;jettySize=auto;html=1;exitX=1;exitY=0.5;exitDx=0;exitDy=0;entryX=0;entryY=0.75;entryDx=0;entryDy=0;" edge="1" parent="1" source="zFzRF6gRcmaDGI7NoxKq-8" target="zFzRF6gRcmaDGI7NoxKq-13">
          <mxGeometry relative="1" as="geometry">
            <Array as="points">
              <mxPoint x="510" y="535" />
              <mxPoint x="510" y="589" />
            </Array>
          </mxGeometry>
        </mxCell>
        <mxCell id="zFzRF6gRcmaDGI7NoxKq-8" value="rot" style="rounded=0;whiteSpace=wrap;html=1;fillColor=#d5e8d4;strokeColor=#82b366;" vertex="1" parent="1">
          <mxGeometry x="400" y="520" width="80" height="30" as="geometry" />
        </mxCell>
        <mxCell id="zFzRF6gRcmaDGI7NoxKq-15" style="edgeStyle=orthogonalEdgeStyle;rounded=0;orthogonalLoop=1;jettySize=auto;html=1;exitX=1;exitY=0.5;exitDx=0;exitDy=0;entryX=0;entryY=0.5;entryDx=0;entryDy=0;" edge="1" parent="1" source="zFzRF6gRcmaDGI7NoxKq-10" target="zFzRF6gRcmaDGI7NoxKq-13">
          <mxGeometry relative="1" as="geometry">
            <Array as="points">
              <mxPoint x="520" y="495" />
              <mxPoint x="520" y="580" />
            </Array>
          </mxGeometry>
        </mxCell>
        <mxCell id="zFzRF6gRcmaDGI7NoxKq-10" value="ySpeed" style="rounded=0;whiteSpace=wrap;html=1;fillColor=#d5e8d4;strokeColor=#82b366;" vertex="1" parent="1">
          <mxGeometry x="400" y="480" width="80" height="30" as="geometry" />
        </mxCell>
        <mxCell id="zFzRF6gRcmaDGI7NoxKq-11" value="fieldRelative" style="rounded=0;whiteSpace=wrap;html=1;fillColor=#d5e8d4;strokeColor=#82b366;" vertex="1" parent="1">
          <mxGeometry x="400" y="560" width="80" height="30" as="geometry" />
        </mxCell>
        <mxCell id="zFzRF6gRcmaDGI7NoxKq-13" value="drive" style="shape=step;perimeter=stepPerimeter;whiteSpace=wrap;html=1;fixedSize=1;fillColor=#ffe6cc;strokeColor=#d79b00;" vertex="1" parent="1">
          <mxGeometry x="570" y="560" width="150" height="40" as="geometry" />
        </mxCell>
        <mxCell id="zFzRF6gRcmaDGI7NoxKq-17" style="edgeStyle=orthogonalEdgeStyle;rounded=0;orthogonalLoop=1;jettySize=auto;html=1;exitX=1;exitY=0.5;exitDx=0;exitDy=0;entryX=0.019;entryY=0.97;entryDx=0;entryDy=0;entryPerimeter=0;" edge="1" parent="1" source="zFzRF6gRcmaDGI7NoxKq-11" target="zFzRF6gRcmaDGI7NoxKq-13">
          <mxGeometry relative="1" as="geometry">
            <Array as="points">
              <mxPoint x="500" y="575" />
              <mxPoint x="500" y="599" />
            </Array>
          </mxGeometry>
        </mxCell>
      </root>
    </mxGraphModel>
  </diagram>
</mxfile>
